<svg xmlns="http://www.w3.org/2000/svg" viewBox="0 0 800 600">
  <rect width="800" height="600" fill="#FFF8EE"/>
  <circle cx="400" cy="297" r="235" fill="#E8D7C4"/>
  <circle cx="400" cy="297" r="194" fill="#F8ECDD"/>
  <path d="M238 132c19 152 56 267 162 344 106-77 143-192 162-344" fill="none" stroke="#A34A2A" stroke-width="15" stroke-linecap="round"/>
  <path d="M260 137c32 131 67 221 140 282 73-61 108-151 140-282" fill="none" stroke="#E3B56C" stroke-width="7" stroke-linecap="round" stroke-dasharray="4 18"/>
  <path d="m400 394 64 66-64 89-64-89Z" fill="#254441"/>
  <path d="m400 411 43 49-43 59-43-59Z" fill="#8BAA91"/>
  <circle cx="400" cy="386" r="20" fill="#E3B56C" stroke="#A34A2A" stroke-width="8"/>
  <path d="M122 178c54-11 95 6 119 49-50 9-90-7-119-49Z" fill="#8BAA91"/>
  <path d="M679 361c-52-15-94-1-121 39 49 13 90 0 121-39Z" fill="#A34A2A" opacity=".75"/>
  <g fill="#254441" opacity=".6">
    <circle cx="127" cy="420" r="12"/><circle cx="160" cy="454" r="7"/><circle cx="677" cy="160" r="11"/><circle cx="641" cy="128" r="6"/>
  </g>
</svg>
